<svg width="72" height="79" viewBox="0 0 72 79" fill="none" xmlns="http://www.w3.org/2000/svg">
<path fill-rule="evenodd" clip-rule="evenodd" d="M1.01215 32.6046C1.35335 20.7778 9.26267 6.91186 18.1408 1.9574C21.4893 0.0887362 25.8719 1.03911 27.9295 4.08012C29.9872 7.12113 28.9407 11.1012 25.5921 12.9699C23.753 13.9962 21.1836 16.8435 19.1002 20.4959C16.7685 24.5835 15.3515 29.0719 15.2398 32.9432C15.1288 36.7921 16.2672 39.6733 18.6293 41.6004C21.7003 44.1056 27.2308 45.4946 35.6904 45.1617C44.1471 44.829 49.8337 42.8553 53.125 39.7788C55.7592 37.3164 56.9706 33.9665 56.7398 30.0045C56.5137 26.1229 54.8805 22.0001 52.3558 18.783C50.1097 15.9208 47.5547 14.2768 45.6513 14.083C41.7455 13.6853 38.9343 10.4874 39.3723 6.94037C39.8103 3.39334 43.3315 0.840326 47.2373 1.23806C59.7255 2.5098 70.1657 15.8133 70.9525 29.3217C71.3826 36.7046 68.8932 43.5883 63.333 48.7856C57.2847 54.4393 48.1524 57.609 36.3065 58.0751C24.4216 58.5427 15.2875 56.2487 9.11827 51.216C3.386 46.5396 0.799025 39.9919 1.01215 32.6046ZM40.4374 69.9486C40.4374 74.3953 36.0495 78.0001 30.6368 78.0001C25.2241 78.0001 20.8362 74.3953 20.8362 69.9486C20.8362 65.5018 25.2241 61.897 30.6368 61.897C36.0495 61.897 40.4374 65.5018 40.4374 69.9486Z" fill="#EFCD1F"/>
<path d="M18.1408 1.9574L18.3844 2.39402L18.1408 1.9574ZM1.01215 32.6046L1.51194 32.619L1.01215 32.6046ZM27.9295 4.08012L27.5154 4.36032L27.9295 4.08012ZM25.5921 12.9699L25.8358 13.4065L25.5921 12.9699ZM19.1002 20.4959L18.6659 20.2481L19.1002 20.4959ZM15.2398 32.9432L15.7396 32.9576L15.2398 32.9432ZM18.6293 41.6004L18.9454 41.2129L18.6293 41.6004ZM35.6904 45.1617L35.6708 44.6621L35.6904 45.1617ZM53.125 39.7788L52.7835 39.4135L53.125 39.7788ZM56.7398 30.0045L57.239 29.9754L56.7398 30.0045ZM52.3558 18.783L51.9625 19.0917L52.3558 18.783ZM45.6513 14.083L45.6006 14.5804L45.6513 14.083ZM39.3723 6.94037L39.8685 7.00164L39.3723 6.94037ZM47.2373 1.23806L47.2879 0.740637L47.2373 1.23806ZM70.9525 29.3217L71.4517 29.2926L70.9525 29.3217ZM63.333 48.7856L62.9916 48.4204L63.333 48.7856ZM36.3065 58.0751L36.3261 58.5747L36.3065 58.0751ZM9.11827 51.216L9.43433 50.8285L9.11827 51.216ZM17.8971 1.52079C13.352 4.05723 9.09728 8.84448 5.93933 14.4588C2.77898 20.0773 0.685772 26.5792 0.512355 32.5902L1.51194 32.619C1.67972 26.8033 3.71178 20.4587 6.81091 14.949C9.91246 9.435 14.0515 4.81202 18.3844 2.39402L17.8971 1.52079ZM28.3436 3.79992C26.1306 0.529209 21.4564 -0.46547 17.8971 1.52079L18.3844 2.39402C21.5223 0.642943 25.6132 1.54901 27.5154 4.36032L28.3436 3.79992ZM25.8358 13.4065C29.4197 11.4065 30.5784 7.10276 28.3436 3.79992L27.5154 4.36032C29.3959 7.13951 28.4617 10.7959 25.3485 12.5333L25.8358 13.4065ZM19.5345 20.7436C20.5608 18.9444 21.705 17.347 22.8143 16.077C23.9295 14.8004 24.9877 13.8798 25.8358 13.4065L25.3485 12.5333C24.3575 13.0863 23.2113 14.1025 22.0612 15.4192C20.9052 16.7425 19.723 18.3949 18.6659 20.2481L19.5345 20.7436ZM15.7396 32.9576C15.8484 29.1867 17.2332 24.778 19.5345 20.7436L18.6659 20.2481C16.3038 24.3891 14.8546 28.9571 14.74 32.9287L15.7396 32.9576ZM18.9454 41.2129C16.7334 39.4084 15.6318 36.6943 15.7396 32.9576L14.74 32.9287C14.6258 36.8898 15.801 39.9383 18.3133 41.9878L18.9454 41.2129ZM35.6708 44.6621C27.2464 44.9936 21.8713 43.5999 18.9454 41.2129L18.3133 41.9878C21.5293 44.6114 27.2153 45.9956 35.7101 45.6613L35.6708 44.6621ZM52.7835 39.4135C49.62 42.3706 44.0769 44.3314 35.6708 44.6621L35.7101 45.6613C44.2172 45.3266 50.0474 43.3399 53.4664 40.144L52.7835 39.4135ZM56.2407 30.0336C56.4641 33.8685 55.2945 37.0663 52.7835 39.4135L53.4664 40.144C56.2238 37.5665 57.4772 34.0645 57.239 29.9754L56.2407 30.0336ZM51.9625 19.0917C54.4294 22.2352 56.021 26.2619 56.2407 30.0336L57.239 29.9754C57.0065 25.9838 55.3315 21.7649 52.7492 18.4743L51.9625 19.0917ZM45.6006 14.5804C47.307 14.7542 49.7518 16.2747 51.9625 19.0917L52.7492 18.4743C50.4676 15.5669 47.8024 13.7995 45.7019 13.5856L45.6006 14.5804ZM38.8761 6.8791C38.3983 10.7486 41.4625 14.159 45.6006 14.5804L45.7019 13.5856C42.0286 13.2115 39.4704 10.2262 39.8685 7.00164L38.8761 6.8791ZM47.2879 0.740637C43.1552 0.319783 39.3525 3.02064 38.8761 6.8791L39.8685 7.00164C40.268 3.76603 43.5079 1.36087 47.1866 1.73549L47.2879 0.740637ZM71.4517 29.2926C71.0516 22.4247 68.2004 15.622 63.8686 10.3729C59.5378 5.12517 53.6942 1.39302 47.2879 0.740637L47.1866 1.73549C53.2686 2.35484 58.8892 5.91032 63.0973 11.0094C67.3043 16.1071 70.0666 22.7104 70.4534 29.3508L71.4517 29.2926ZM63.6745 49.1509C69.3507 43.8451 71.8898 36.8133 71.4517 29.2926L70.4534 29.3508C70.8754 36.5958 68.4358 43.3315 62.9916 48.4204L63.6745 49.1509ZM36.3261 58.5747C48.2428 58.1058 57.5082 54.9148 63.6745 49.1509L62.9916 48.4204C57.0612 53.9638 48.0619 57.1122 36.2868 57.5754L36.3261 58.5747ZM8.8022 51.6034C15.1034 56.7439 24.3786 59.0448 36.3261 58.5747L36.2868 57.5754C24.4645 58.0406 15.4715 55.7536 9.43433 50.8285L8.8022 51.6034ZM0.512355 32.5902C0.295349 40.1121 2.93453 46.8166 8.8022 51.6034L9.43433 50.8285C3.83747 46.2627 1.3027 39.8717 1.51194 32.619L0.512355 32.5902ZM30.6368 78.5001C36.2292 78.5001 40.9374 74.7589 40.9374 69.9486H39.9374C39.9374 74.0318 35.8698 77.5001 30.6368 77.5001V78.5001ZM20.3362 69.9486C20.3362 74.7589 25.0443 78.5001 30.6368 78.5001V77.5001C25.4038 77.5001 21.3362 74.0318 21.3362 69.9486H20.3362ZM30.6368 61.397C25.0443 61.397 20.3362 65.1382 20.3362 69.9486H21.3362C21.3362 65.8654 25.4038 62.397 30.6368 62.397V61.397ZM40.9374 69.9486C40.9374 65.1382 36.2292 61.397 30.6368 61.397V62.397C35.8698 62.397 39.9374 65.8654 39.9374 69.9486H40.9374Z" fill="#EFCD1F"/>
</svg>
